<?xml version="1.0" standalone="no"?>
<!DOCTYPE svg PUBLIC "-//W3C//DTD SVG 20010904//EN"
 "http://www.w3.org/TR/2001/REC-SVG-20010904/DTD/svg10.dtd">
<svg version="1.0" xmlns="http://www.w3.org/2000/svg"
 width="798.000000pt" height="503.000000pt" viewBox="0 0 798.000000 503.000000"
 preserveAspectRatio="xMidYMid meet">

<g transform="translate(0.000000,503.000000) scale(0.100000,-0.100000)"
fill="#000000" stroke="none">
<path d="M0 2515 l0 -2515 3990 0 3990 0 0 2515 0 2515 -3990 0 -3990 0 0
-2515z m7190 1797 c113 -46 196 -129 242 -242 l23 -55 0 -1535 0 -1535 -23
-55 c-46 -113 -129 -196 -242 -242 l-55 -23 -3050 0 -3050 0 -55 23 c-113 46
-196 129 -242 242 l-23 55 -3 1509 c-2 1338 -1 1516 13 1570 28 108 93 197
187 253 110 67 -143 62 3193 60 l3030 -2 55 -23z"/>
<path d="M1181 4194 c-30 -8 -77 -27 -105 -42 -65 -34 -163 -133 -198 -198
-61 -113 -58 -45 -58 -1489 0 -1444 -3 -1376 58 -1489 34 -65 133 -164 198
-198 116 -62 -103 -58 2994 -58 3097 0 2878 -4 2994 58 65 34 164 133 198 198
61 113 58 45 58 1489 0 1444 3 1376 -58 1489 -34 65 -133 164 -198 198 -116
62 104 58 -2999 57 -2440 0 -2837 -2 -2884 -15z m5744 -49 c164 -43 287 -166
330 -330 13 -52 15 -223 15 -1350 0 -1411 3 -1346 -58 -1459 -35 -65 -113
-143 -178 -178 -116 -62 100 -58 -2964 -58 -3064 0 -2848 -4 -2964 58 -65 35
-143 113 -178 178 -61 113 -58 48 -58 1459 0 1411 -3 1346 58 1459 35 65 113
143 178 178 113 61 -96 57 2959 57 2486 1 2807 -1 2860 -14z"/>
<path d="M3524 3263 c7 -37 86 -543 86 -554 0 -5 49 -9 108 -9 l109 0 37 268
c21 147 40 279 43 295 l6 27 -81 0 -80 0 -6 -52 c-3 -29 -11 -116 -17 -193
-10 -129 -19 -183 -19 -124 0 13 -7 98 -15 189 -8 91 -15 168 -15 173 0 4 -36
7 -81 7 l-81 0 6 -27z"/>
<path d="M4010 2995 l0 -295 75 0 75 0 0 295 0 295 -75 0 -75 0 0 -295z"/>
<path d="M4296 3023 c-20 -148 -39 -280 -42 -295 l-6 -28 81 0 81 0 0 55 0 55
35 0 35 0 0 -55 0 -55 81 0 81 0 -6 28 c-7 36 -86 542 -86 553 0 5 -49 9 -108
9 l-109 0 -37 -267z m168 -50 c6 -63 6 -63 -20 -63 -24 0 -25 2 -20 38 3 20 9
73 13 117 l7 80 7 -55 c4 -30 9 -83 13 -117z"/>
<path d="M2883 2370 c-30 -16 -48 -34 -63 -66 -20 -41 -21 -56 -18 -231 3
-166 5 -192 23 -221 57 -94 233 -94 290 0 18 30 20 51 20 235 0 221 -1 227
-68 277 -40 30 -131 33 -184 6z m102 -286 c0 -170 -2 -199 -15 -199 -13 0 -15
29 -18 190 -3 197 0 219 21 212 9 -3 12 -52 12 -203z"/>
<path d="M2440 2085 l0 -295 75 0 75 0 0 125 0 125 50 0 50 0 0 55 0 55 -50 0
-50 0 0 55 0 55 55 0 55 0 0 60 0 60 -130 0 -130 0 0 -295z"/>
<path d="M3270 2085 l0 -295 65 0 65 0 1 128 1 127 27 -100 c15 -55 31 -112
35 -127 6 -27 8 -28 76 -28 l70 0 0 295 0 295 -65 0 -65 0 -1 -127 0 -128 -20
55 c-10 30 -31 88 -45 128 l-26 72 -59 0 -59 0 0 -295z"/>
<path d="M3740 2085 l0 -296 145 3 c143 3 145 3 172 31 l28 27 3 209 c5 307 0
313 -215 319 l-133 4 0 -297z m188 183 c8 -8 12 -63 12 -183 0 -172 -4 -195
-37 -195 -10 0 -13 42 -13 195 0 199 4 217 38 183z"/>
<path d="M4226 2113 c-21 -148 -40 -280 -43 -295 l-5 -28 81 0 81 0 0 55 0 55
35 0 35 0 0 -55 0 -55 81 0 81 0 -6 28 c-7 36 -86 542 -86 553 0 5 -49 9 -108
9 l-109 0 -37 -267z m168 -50 c6 -63 6 -63 -20 -63 -24 0 -25 2 -20 38 3 20 9
73 13 117 l7 80 7 -55 c4 -30 9 -83 13 -117z"/>
<path d="M4660 2320 l0 -60 56 0 c48 0 55 -2 50 -17 -3 -10 -30 -96 -61 -192
-31 -100 -55 -193 -55 -218 l0 -43 145 0 145 0 0 60 0 60 -56 0 c-53 0 -55 1
-48 23 89 275 104 333 104 388 l0 59 -140 0 -140 0 0 -60z"/>
<path d="M5020 2320 l0 -60 56 0 c48 0 55 -2 50 -17 -3 -10 -30 -96 -61 -192
-31 -100 -55 -193 -55 -218 l0 -43 145 0 145 0 0 60 0 60 -56 0 c-53 0 -55 1
-48 23 89 275 104 333 104 388 l0 59 -140 0 -140 0 0 -60z"/>
<path d="M5450 2370 c0 -13 -69 -506 -76 -547 l-6 -33 81 0 81 0 0 55 0 55 35
0 35 0 0 -55 0 -55 81 0 81 0 -6 28 c-8 36 -86 541 -86 553 0 5 -48 9 -110 9
-65 0 -110 -4 -110 -10z m134 -307 c6 -63 6 -63 -20 -63 -24 0 -25 2 -20 38 3
20 9 73 13 117 l7 80 7 -55 c4 -30 9 -83 13 -117z"/>
</g>
</svg>
